<?xml version="1.0" standalone="no"?>
<!DOCTYPE svg PUBLIC "-//W3C//DTD SVG 20010904//EN"
 "http://www.w3.org/TR/2001/REC-SVG-20010904/DTD/svg10.dtd">
<svg version="1.0" xmlns="http://www.w3.org/2000/svg"
 width="1600.000000pt" height="1066.000000pt" viewBox="0 0 1600.000000 1066.000000"
 preserveAspectRatio="xMidYMid meet">

<g transform="translate(0.000000,1066.000000) scale(0.100000,-0.100000)"
fill="#000000" stroke="none">
<path d="M3731 6337 c-145 -209 -263 -497 -308 -752 -25 -145 -25 -512 0 -650
33 -181 83 -334 163 -500 54 -111 173 -303 224 -361 l27 -32 143 143 143 143
-57 85 c-150 225 -226 441 -257 722 -27 255 40 600 156 810 48 85 75 125 85
125 10 0 59 -28 70 -40 3 -3 24 -18 47 -34 65 -44 68 -49 41 -93 -75 -120
-135 -291 -159 -453 -23 -157 -23 -224 1 -380 30 -202 117 -417 218 -545 l23
-29 139 140 139 139 -28 45 c-36 58 -89 203 -101 277 -18 110 -6 341 24 438
21 69 66 155 80 155 9 0 16 -3 16 -7 1 -5 27 -28 60 -53 64 -48 69 -63 43
-113 -23 -45 -52 -190 -53 -264 0 -71 20 -176 50 -254 38 -104 26 -108 203 69
l157 158 -33 32 -34 33 -107 -108 c-120 -121 -120 -121 -132 -14 -14 136 3
239 60 364 14 31 23 62 20 69 -3 7 -30 33 -61 58 -31 25 -87 71 -124 103 -37
31 -72 57 -77 57 -14 0 -98 -105 -120 -150 -48 -101 -71 -210 -79 -380 -8
-149 28 -324 92 -451 l26 -50 -68 -69 c-37 -38 -73 -70 -79 -70 -24 0 -113
208 -150 355 -26 99 -26 420 0 515 33 124 95 276 144 352 9 14 27 42 39 61
l21 35 -56 50 c-32 27 -84 71 -117 97 -33 27 -78 63 -99 82 -32 26 -42 30 -54
21 -24 -20 -85 -118 -131 -208 -24 -47 -47 -89 -51 -95 -14 -20 -69 -174 -84
-236 -50 -209 -51 -220 -51 -419 1 -217 18 -332 77 -505 40 -117 129 -301 184
-379 8 -11 14 -27 14 -34 0 -8 -32 -46 -70 -84 -83 -83 -76 -85 -155 43 -98
159 -168 324 -214 509 -42 165 -53 254 -56 430 -5 399 127 811 350 1094 l30
38 -35 29 c-19 16 -37 29 -40 29 -3 0 -34 -42 -69 -93z"/>
<path d="M6789 6413 c-24 -28 -240 -227 -255 -236 -20 -12 -18 -20 25 -84 89
-135 165 -320 205 -503 72 -333 26 -692 -127 -989 -57 -111 -108 -194 -126
-206 -13 -8 -161 134 -161 154 0 10 4 21 9 27 22 23 103 182 131 258 137 374
96 778 -117 1119 l-28 46 -74 -67 c-41 -37 -106 -97 -144 -133 l-71 -66 41
-89 c46 -102 57 -141 73 -276 10 -82 10 -115 -4 -218 -9 -67 -24 -142 -32
-168 -24 -71 -66 -152 -79 -152 -11 0 -135 95 -147 114 -4 6 -1 17 6 26 7 8
26 47 41 85 52 130 45 351 -17 494 -10 25 -21 47 -23 50 -3 2 -60 -47 -127
-110 -68 -63 -141 -130 -162 -150 l-39 -37 24 -30 c13 -17 29 -31 35 -31 6 -1
42 28 80 63 38 35 87 80 109 99 l40 36 8 -27 c5 -15 9 -70 10 -122 2 -111 -17
-191 -68 -293 -19 -38 -35 -75 -35 -82 0 -10 66 -75 165 -160 6 -5 28 -26 48
-44 l37 -35 36 35 c87 83 145 214 178 404 32 181 13 368 -52 524 l-30 70 75
72 74 72 20 -29 c31 -48 93 -216 104 -284 3 -19 10 -62 16 -95 25 -140 5 -392
-42 -530 -26 -76 -81 -199 -91 -203 -5 -2 -8 -10 -8 -17 0 -7 -25 -48 -56 -91
l-56 -78 28 -24 c16 -14 67 -59 114 -102 114 -103 157 -140 162 -140 11 0 46
38 83 90 135 185 230 412 278 660 18 95 14 461 -6 563 -35 173 -121 396 -200
521 l-31 49 80 72 c43 40 82 71 87 68 15 -9 74 -110 125 -213 66 -135 138
-355 157 -484 23 -155 30 -367 16 -482 -17 -143 -42 -287 -51 -299 -4 -5 -11
-26 -15 -45 -11 -54 -82 -232 -127 -318 -49 -93 -137 -230 -190 -294 l-38 -46
31 -26 c17 -14 34 -26 39 -26 15 0 66 66 142 181 103 158 174 307 222 464 15
50 31 101 36 115 13 36 48 280 55 385 12 169 -25 460 -82 639 -42 134 -158
396 -175 396 -4 0 -8 5 -8 10 0 18 -118 190 -130 190 -3 0 -12 -8 -21 -17z"/>
<path d="M8888 5698 l-3 -283 -220 0 -219 0 3 167 c3 186 7 177 -71 176 l-38
0 0 -501 0 -502 55 3 56 4 -1 276 -1 277 220 3 221 2 0 -195 0 -195 50 0 50 0
0 525 0 525 -50 0 -50 0 -2 -282z"/>
<path d="M10695 5940 c3 -22 14 -63 24 -92 10 -29 24 -78 31 -108 7 -30 35
-136 62 -235 28 -99 56 -202 63 -230 29 -114 67 -253 81 -297 l16 -48 49 0 48
0 17 56 c9 31 18 64 19 73 2 9 4 16 5 16 0 0 12 38 25 85 13 47 35 126 50 175
14 50 37 137 52 195 14 58 29 109 33 113 4 4 19 -36 35 -90 15 -54 36 -127 47
-163 21 -72 66 -237 100 -372 l22 -88 52 0 c59 0 51 -13 94 145 29 104 82 290
109 385 12 41 28 102 36 135 8 33 21 80 29 104 9 24 16 47 16 51 0 13 -87 10
-103 -3 -7 -7 -33 -93 -56 -192 -24 -99 -49 -202 -57 -230 -8 -27 -23 -93 -34
-145 -12 -52 -23 -96 -25 -99 -3 -2 -7 5 -11 15 -3 10 -10 30 -15 44 -5 14
-22 77 -39 140 -64 249 -129 463 -142 471 -7 5 -34 9 -60 9 -36 0 -50 -5 -57
-18 -9 -16 -28 -85 -111 -382 -9 -36 -30 -110 -45 -165 -15 -55 -29 -102 -31
-104 -7 -8 -16 7 -24 41 -4 18 -24 94 -45 168 -20 74 -45 169 -56 210 -11 41
-22 82 -26 90 -3 8 -7 20 -9 25 -41 168 -56 224 -74 284 l-22 71 -39 0 -40 0
6 -40z"/>
<path d="M7708 5748 c-109 -37 -172 -138 -155 -245 15 -91 108 -153 292 -193
215 -46 280 -117 209 -226 -40 -62 -145 -92 -251 -73 -94 18 -165 76 -179 148
-6 30 -9 31 -55 31 -58 0 -60 -9 -29 -93 26 -69 69 -113 150 -151 60 -28 74
-30 170 -31 99 0 109 2 172 33 119 58 170 159 138 273 -25 88 -118 149 -277
183 -116 24 -182 47 -213 73 -25 21 -30 32 -30 70 0 89 90 141 223 130 97 -8
136 -30 167 -94 25 -51 25 -52 73 -52 56 -1 59 9 22 84 -29 60 -40 74 -83 104
-73 51 -241 65 -344 29z"/>
<path d="M9190 5345 l0 -415 50 0 50 0 2 178 3 177 104 3 c195 5 246 -27 311
-199 22 -57 42 -116 46 -131 5 -27 8 -28 63 -28 l58 0 -27 78 c-27 76 -47 127
-76 189 -8 17 -32 47 -54 66 -22 19 -40 39 -40 44 0 6 14 13 32 17 20 4 50 25
79 55 41 43 48 57 54 104 9 72 -1 126 -31 174 -57 87 -122 103 -421 103 l-203
0 0 -415z m479 308 c21 -9 47 -30 56 -46 25 -42 24 -130 -2 -165 -37 -51 -64
-57 -255 -60 l-178 -4 0 146 0 146 170 0 c137 0 177 -3 209 -17z"/>
<path d="M10040 5345 l0 -415 424 0 425 0 -11 33 c-5 17 -10 38 -11 45 0 9
-80 12 -364 12 l-364 0 3 146 3 145 228 -1 227 -1 0 46 0 45 -230 0 -231 0 3
131 3 130 243 -1 242 -1 1 26 c1 14 2 35 2 48 l1 22 -297 3 -297 2 0 -415z"/>
<path d="M11920 5346 l0 -416 184 0 c169 0 192 2 264 25 81 25 172 90 172 121
0 8 4 14 9 14 21 0 53 126 58 232 5 90 2 117 -16 178 -26 86 -64 140 -128 186
-78 56 -125 65 -345 71 l-198 6 0 -417z m351 310 c157 -8 229 -110 229 -323 0
-67 -5 -106 -20 -145 -48 -130 -124 -168 -331 -168 l-119 0 0 318 c0 175 2
321 5 324 5 4 81 3 236 -6z"/>
</g>
</svg>
